<?xml version="1.0" encoding="iso-8859-1"?>
<!-- Uploaded to: SVG Repo, www.svgrepo.com, Generator: SVG Repo Mixer Tools -->
<svg fill="#BB7ADA" height="35px" width="35px" version="1.1" id="numerology" xmlns="http://www.w3.org/2000/svg" xmlns:xlink="http://www.w3.org/1999/xlink" 
	 viewBox="0 0 512 512" xml:space="preserve">
<g>
	<g>
		<path d="M433.021,275.064h-10.894V247.83h10.894c43.549,0,78.979-35.429,78.979-78.979s-35.429-78.979-78.979-78.979h-10.894
			V78.979C422.128,35.429,386.698,0,343.149,0C299.6,0,264.17,35.429,264.17,78.979v10.894h-27.234V78.979
			C236.936,35.429,201.507,0,157.957,0S78.979,35.429,78.979,78.979v10.894C35.429,89.872,0,125.302,0,168.851
			C0,212.4,35.429,247.83,78.979,247.83v27.234C35.429,275.064,0,310.493,0,354.043c0,43.549,35.429,78.979,78.979,78.979
			c0,43.549,35.429,78.979,78.979,78.979s78.979-35.429,78.979-78.979h27.234c0,43.549,35.429,78.979,78.979,78.979
			c43.549,0,78.979-35.429,78.979-78.979h10.894c43.549,0,78.979-35.429,78.979-78.979C512,310.493,476.571,275.064,433.021,275.064
			z M422.128,106.213h10.894c34.539,0,62.638,28.099,62.638,62.638s-28.099,62.638-62.638,62.638h-119.83v-16.34h119.83
			c25.529,0,46.298-20.769,46.298-46.298s-20.769-46.298-46.298-46.298h-10.894V106.213z M422.128,324.085h10.894
			c16.519,0,29.957,13.44,29.957,29.957c0,16.518-13.438,29.957-29.957,29.957h-10.894V324.085z M381.277,264.17
			c-4.512,0-8.17,3.657-8.17,8.17v2.723h-59.915V247.83h92.596V384h-16.34V283.245c0-0.022,0-10.904,0-10.904
			C389.447,267.827,385.789,264.17,381.277,264.17z M236.936,307.745v-16.34h136.17v16.34H236.936z M373.106,324.085V384h-59.915
			v-59.915H373.106z M196.085,264.17c-4.512,0-8.17,3.657-8.17,8.17v2.723H128V247.83h92.596v68.074c0,0.022,0,68.096,0,68.096
			h-16.34V272.34C204.255,267.827,200.597,264.17,196.085,264.17z M128,231.489v-16.34h136.17v16.34H128z M128,198.809v-59.915
			h59.915v59.915H128z M187.915,89.872H128V78.979c0-16.518,13.438-29.957,29.957-29.957s29.957,13.439,29.957,29.957V89.872z
			 M264.17,247.83v27.234h-27.234V247.83H264.17z M313.191,198.809v-59.915h59.915v59.915H313.191z M373.106,89.872h-59.915V78.979
			c0-16.518,13.438-29.957,29.957-29.957c16.519,0,29.957,13.439,29.957,29.957V89.872z M422.128,138.894h10.894
			c16.519,0,29.957,13.439,29.957,29.957s-13.438,29.957-29.957,29.957h-10.894V138.894z M280.511,78.979
			c0-34.539,28.099-62.638,62.638-62.638s62.638,28.099,62.638,62.638v119.83h-16.34V98.053c0-0.022,0-19.075,0-19.075
			c0-25.529-20.769-46.298-46.298-46.298s-46.298,20.769-46.298,46.298v10.894h-16.34V78.979z M236.936,106.213h136.17v16.34
			h-136.17V106.213z M236.936,138.894h59.915v136.17h-16.34V239.67c0-0.022,0-76.266,0-76.266c0-4.513-3.658-8.17-8.17-8.17
			c-4.512,0-8.17,3.657-8.17,8.17v35.404h-27.234V138.894z M95.319,78.979c0-34.539,28.099-62.638,62.638-62.638
			s62.638,28.099,62.638,62.638v51.734c0,0.022,0,68.096,0,68.096h-16.34V78.979c0-25.529-20.769-46.298-46.298-46.298
			S111.66,53.45,111.66,78.979v10.894h-16.34V78.979z M16.34,168.851c0-34.539,28.099-62.638,62.638-62.638h108.936v16.34H78.979
			c-25.529,0-46.298,20.769-46.298,46.298s20.769,46.298,46.298,46.298v16.34C44.439,231.489,16.34,203.39,16.34,168.851z
			 M87.149,155.234c-4.512,0-8.17,3.657-8.17,8.17v35.404c-16.519,0-29.957-13.439-29.957-29.957s13.438-29.957,29.957-29.957
			h32.681v68.074c0,0.022,0,68.096,0,68.096h-16.34v-111.66C95.319,158.891,91.661,155.234,87.149,155.234z M78.979,416.681
			c-34.539,0-62.638-28.099-62.638-62.638s28.099-62.638,62.638-62.638h108.936v16.34H78.979c-25.529,0-46.298,20.769-46.298,46.298
			S53.45,400.34,78.979,400.34V416.681z M187.915,324.085V384H128v-59.915H187.915z M157.957,495.66
			c-34.539,0-62.638-28.099-62.638-62.638v-84.426c0-4.513-3.658-8.17-8.17-8.17c-4.512,0-8.17,3.657-8.17,8.17V384
			c-16.519,0-29.957-13.439-29.957-29.957c0-16.518,13.438-29.957,29.957-29.957h32.681v68.074c0,0.022,0,40.862,0,40.862
			c0,25.529,20.769,46.298,46.298,46.298s46.298-20.769,46.298-46.298h16.34C220.596,467.561,192.497,495.66,157.957,495.66z
			 M128,433.021h59.915c0,16.518-13.438,29.957-29.957,29.957S128,449.539,128,433.021z M264.17,416.681H128v-16.34h136.17V416.681z
			 M343.149,495.66c-34.539,0-62.638-28.099-62.638-62.638v-8.159c0-0.022,0-76.266,0-76.266c0-4.513-3.658-8.17-8.17-8.17
			c-4.512,0-8.17,3.657-8.17,8.17V384h-27.234v-59.915h59.915v108.936c0,25.529,20.769,46.298,46.298,46.298
			s46.298-20.769,46.298-46.298h16.34C405.787,467.561,377.688,495.66,343.149,495.66z M313.191,433.021h59.915
			c0,16.518-13.438,29.957-29.957,29.957C326.63,462.979,313.191,449.539,313.191,433.021z M433.021,416.681h-119.83v-16.34h119.83
			c25.529,0,46.298-20.769,46.298-46.298s-20.769-46.298-46.298-46.298h-10.894v-16.34h10.894c34.539,0,62.638,28.099,62.638,62.638
			S467.561,416.681,433.021,416.681z"/>
	</g>
</g>
</svg>