<svg aria-hidden="true" style="position: absolute; width: 0; height: 0; overflow: hidden;" version="1.1" xmlns="http://www.w3.org/2000/svg" xmlns:xlink="http://www.w3.org/1999/xlink">
<defs>
<symbol id="scroll-icon" viewBox="0 0 32 32">
<path d="M16.947 17.867c-0.124 0.125-0.271 0.224-0.434 0.292s-0.337 0.103-0.513 0.103c-0.176 0-0.35-0.035-0.513-0.103s-0.31-0.167-0.434-0.292l-6.107-6.12c-0.124-0.125-0.271-0.224-0.434-0.292s-0.337-0.103-0.513-0.103c-0.176 0-0.35 0.035-0.513 0.103s-0.31 0.167-0.434 0.292c-0.248 0.25-0.388 0.588-0.388 0.94s0.139 0.69 0.388 0.94l6.12 6.12c0.75 0.749 1.767 1.17 2.827 1.17s2.077-0.421 2.827-1.17l6.12-6.12c0.246-0.248 0.385-0.584 0.387-0.933 0.001-0.175-0.033-0.349-0.099-0.512s-0.164-0.31-0.288-0.435c-0.124-0.125-0.271-0.224-0.434-0.292s-0.337-0.103-0.513-0.103-0.35 0.035-0.513 0.103c-0.162 0.068-0.31 0.167-0.434 0.292l-6.107 6.12z"></path>
</symbol>
<symbol id="icon-close" viewBox="0 0 32 32">
<path stroke-linejoin="round" stroke-linecap="round" stroke-miterlimit="4" stroke-width="2.9091" d="M24 8l-16 16"></path>
<path stroke-linejoin="round" stroke-linecap="round" stroke-miterlimit="4" stroke-width="2.9091" d="M8 8l16 16"></path>
</symbol>
<symbol id="icon-burger" viewBox="0 0 32 32">
<path stroke-linejoin="round" stroke-linecap="round" stroke-miterlimit="4" stroke-width="2.8571" d="M2.286 16h27.429M2.286 6.857h27.429M2.286 25.143h27.429"></path>
</symbol>
<symbol id="icon-twitter" viewBox="0 0 32 32">
<path stroke-linejoin="round" stroke-linecap="round" stroke-miterlimit="4" stroke-width="2.6667" d="M30.667 4c-1.277 0.901-2.691 1.589-4.187 2.040-0.803-0.923-1.87-1.578-3.057-1.875s-2.437-0.222-3.58 0.214c-1.143 0.436-2.125 1.213-2.812 2.226s-1.047 2.212-1.031 3.435v1.333c-2.343 0.061-4.665-0.459-6.759-1.513s-4.561-3.563-5.908-5.481c0 0-4.667 12.954 7.333 18.287-2.746 1.864-6.017 2.799-9.333 2.667 12 6.667 26.667 0 26.667-15.333-0.001-0.371-0.037-0.742-0.107-1.107 1.361-1.342 2.321-3.036 2.773-4.893z"></path>
</symbol>
<symbol id="icon-instagram" viewBox="0 0 32 32">
<path stroke-linejoin="round" stroke-linecap="round" stroke-miterlimit="4" stroke-width="2.6667" d="M22.667 2.667h-13.333c-3.682 0-6.667 2.985-6.667 6.667v13.333c0 3.682 2.985 6.667 6.667 6.667h13.333c3.682 0 6.667-2.985 6.667-6.667v-13.333c0-3.682-2.985-6.667-6.667-6.667z"></path>
<path stroke-linejoin="round" stroke-linecap="round" stroke-miterlimit="4" stroke-width="2.6667" d="M21.334 15.16c0.165 1.11-0.025 2.243-0.542 3.239s-1.334 1.803-2.336 2.307c-1.002 0.504-2.138 0.68-3.245 0.502s-2.131-0.701-2.924-1.494-1.316-1.816-1.494-2.924c-0.178-1.108-0.003-2.243 0.502-3.245s1.312-1.819 2.308-2.336 2.129-0.706 3.239-0.542c1.132 0.168 2.18 0.695 2.989 1.504s1.337 1.857 1.504 2.989z"></path>
<path stroke-linejoin="round" stroke-linecap="round" stroke-miterlimit="4" stroke-width="2.6667" d="M23.333 8.667h0.013"></path>
</symbol>
<symbol id="icon-spoon" viewBox="0 0 32 32">
<path d="M15.451 14.106c-0.783-0.95-1.177-2.116-1.177-3.282 0-4.324 5.181-8.642 10.362-8.642 2.86 0 5.181 2.321 5.181 5.182 0 5.182-4.317 10.364-8.646 10.364-1.166 0-2.332-0.394-3.281-1.177l-12.758 12.761c-0.675 0.675-1.77 0.675-2.445 0s-0.675-1.771 0-2.445l12.764-12.761z"></path>
</symbol>
<symbol id="icon-dollar" viewBox="0 0 32 32">
<path d="M16 0.762c-8.381 0-15.238 6.857-15.238 15.238s6.857 15.238 15.238 15.238c8.381 0 15.238-6.857 15.238-15.238s-6.857-15.238-15.238-15.238zM16 28.191c-6.705 0-12.19-5.486-12.19-12.19s5.486-12.191 12.19-12.191c6.705 0 12.19 5.486 12.19 12.191s-5.486 12.19-12.191 12.19z"></path>
<path d="M17.981 14.476h-3.962c-0.762 0-1.371-0.61-1.371-1.371s0.61-1.371 1.371-1.371h5.638c0.914 0 1.524-0.61 1.524-1.524s-0.61-1.524-1.524-1.524h-2.133v-1.371c0-0.914-0.61-1.524-1.524-1.524s-1.524 0.61-1.524 1.524v1.371h-0.457c-2.438 0-4.419 1.981-4.419 4.419s1.981 4.419 4.419 4.419h3.809c0.762 0 1.371 0.61 1.371 1.371s-0.61 1.371-1.371 1.371h-5.638c-0.914 0-1.524 0.61-1.524 1.524s0.61 1.524 1.524 1.524h2.286v1.371c0 0.914 0.61 1.524 1.524 1.524s1.524-0.61 1.524-1.524v-1.371h0.457c2.438 0 4.419-1.981 4.419-4.419s-1.981-4.419-4.419-4.419z"></path>
</symbol>
<symbol id="icon-chocolate-bar" viewBox="0 0 32 32">
<path d="M13.822 2.413l7.527 7.536 0.080-0.080c0.158-0.154 0.369-0.242 0.589-0.244s0.434 0.080 0.595 0.231l0.873 0.873c0.305 0.305 0.315 0.77 0.083 1.094l-0.004 0.007-0.143 0.192 6.16 6.16c0.55 0.55 0.55 1.43 0 1.98l-9.43 9.43c-0.55 0.55-1.43 0.55-1.98 0l-4.447-4.447c-0.074 0.093-0.167 0.169-0.272 0.224s-0.221 0.086-0.34 0.093c-0.119 0.007-0.237-0.012-0.348-0.054s-0.212-0.108-0.296-0.192l-2.6-2.6c-0.154-0.158-0.242-0.369-0.244-0.589s0.080-0.434 0.231-0.595l0.006-0.007 0.077-0.076-7.527-7.527c-0.55-0.55-0.55-1.43 0-1.98l9.43-9.43c0.55-0.55 1.43-0.55 1.98 0v0.001zM20.404 10.893l-1.756-1.755c-0.055-0.057-0.121-0.102-0.194-0.133s-0.151-0.047-0.231-0.047c-0.079 0-0.158 0.016-0.231 0.047s-0.139 0.076-0.194 0.133l-3.58 3.58c-0.057 0.056-0.102 0.123-0.132 0.197s-0.047 0.153-0.047 0.233 0.016 0.159 0.047 0.233c0.031 0.074 0.076 0.141 0.132 0.197l1.749 1.749 0.61-0.61-1.565-1.565 3.21-3.22 1.569 1.574 0.613-0.613zM15.328 15.965l-1.754-1.754c-0.055-0.057-0.121-0.102-0.194-0.133s-0.152-0.047-0.231-0.047c-0.079 0-0.158 0.016-0.231 0.047s-0.139 0.076-0.194 0.133l-3.59 3.59c-0.24 0.23-0.24 0.61 0 0.85l1.752 1.752 0.616-0.616-1.57-1.564 3.22-3.21 1.564 1.563 0.612-0.611zM8.822 8.193l3.58 3.58c0.24 0.24 0.62 0.24 0.85-0.010l3.58-3.58c0.057-0.054 0.102-0.119 0.133-0.192s0.047-0.15 0.047-0.228h0.010c0-0.15-0.060-0.31-0.18-0.43l-3.58-3.58c-0.056-0.057-0.123-0.102-0.197-0.133s-0.153-0.047-0.233-0.047c-0.080 0-0.159 0.016-0.233 0.047s-0.141 0.076-0.197 0.133l-3.58 3.59c-0.24 0.23-0.24 0.61 0 0.85zM3.752 13.263l3.58 3.58c0.24 0.24 0.62 0.24 0.85 0l3.58-3.58c0.058-0.055 0.104-0.122 0.135-0.196s0.046-0.154 0.045-0.234h0.010c0-0.16-0.060-0.31-0.18-0.43l-3.58-3.58c-0.055-0.057-0.121-0.102-0.194-0.133s-0.151-0.047-0.231-0.047c-0.079 0-0.158 0.016-0.231 0.047s-0.139 0.076-0.194 0.133l-3.59 3.59c-0.24 0.23-0.24 0.61 0 0.85zM10.685 22.017l2.362 2.363 9.636-13.040-0.655-0.655-11.343 11.332z"></path>
<path d="M13.822 2.413l7.527 7.536 0.080-0.080c0.158-0.154 0.369-0.242 0.589-0.244s0.434 0.080 0.595 0.231l0.873 0.873c0.305 0.305 0.315 0.77 0.083 1.094l-0.004 0.007-0.143 0.192 6.16 6.16c0.55 0.55 0.55 1.43 0 1.98l-9.43 9.43c-0.55 0.55-1.43 0.55-1.98 0l-4.447-4.447c-0.074 0.093-0.167 0.169-0.272 0.224s-0.221 0.086-0.34 0.093c-0.119 0.007-0.237-0.012-0.348-0.054s-0.212-0.108-0.296-0.192l-2.6-2.6c-0.154-0.158-0.242-0.369-0.244-0.589s0.080-0.434 0.231-0.595l0.006-0.007 0.077-0.076-7.527-7.527c-0.55-0.55-0.55-1.43 0-1.98l9.43-9.43c0.55-0.55 1.43-0.55 1.98 0v0.001zM20.404 10.893l-1.756-1.755c-0.055-0.057-0.121-0.102-0.194-0.133s-0.151-0.047-0.231-0.047c-0.079 0-0.158 0.016-0.231 0.047s-0.139 0.076-0.194 0.133l-3.58 3.58c-0.057 0.056-0.102 0.123-0.132 0.197s-0.047 0.153-0.047 0.233 0.016 0.159 0.047 0.233c0.031 0.074 0.076 0.141 0.132 0.197l1.749 1.749 0.61-0.61-1.565-1.565 3.21-3.22 1.569 1.574 0.613-0.613zM15.328 15.965l-1.754-1.754c-0.055-0.057-0.121-0.102-0.194-0.133s-0.152-0.047-0.231-0.047c-0.079 0-0.158 0.016-0.231 0.047s-0.139 0.076-0.194 0.133l-3.59 3.59c-0.24 0.23-0.24 0.61 0 0.85l1.752 1.752 0.616-0.616-1.57-1.564 3.22-3.21 1.564 1.563 0.612-0.611zM8.822 8.193l3.58 3.58c0.24 0.24 0.62 0.24 0.85-0.010l3.58-3.58c0.057-0.054 0.102-0.119 0.133-0.192s0.047-0.15 0.047-0.228h0.010c0-0.15-0.060-0.31-0.18-0.43l-3.58-3.58c-0.056-0.057-0.123-0.102-0.197-0.133s-0.153-0.047-0.233-0.047c-0.080 0-0.159 0.016-0.233 0.047s-0.141 0.076-0.197 0.133l-3.58 3.59c-0.24 0.23-0.24 0.61 0 0.85zM3.752 13.263l3.58 3.58c0.24 0.24 0.62 0.24 0.85 0l3.58-3.58c0.058-0.055 0.104-0.122 0.135-0.196s0.046-0.154 0.045-0.234h0.010c0-0.16-0.060-0.31-0.18-0.43l-3.58-3.58c-0.055-0.057-0.121-0.102-0.194-0.133s-0.151-0.047-0.231-0.047c-0.079 0-0.158 0.016-0.231 0.047s-0.139 0.076-0.194 0.133l-3.59 3.59c-0.24 0.23-0.24 0.61 0 0.85zM10.685 22.017l2.362 2.363 9.636-13.040-0.655-0.655-11.343 11.332z"></path>
</symbol>
<symbol id="icon-chocolate" viewBox="0 0 32 32">
<path fill="#fcf1e0" style="fill: var(--color1, #fcf1e0)" d="M3.944 20.076l10.777-17.424 0.64-0.674 8.236 5.491 0.056 3.314 2.010 3.28-8.88 14.077-12.839-8.063z"></path>
<path fill="none" stroke="#fd9222" style="stroke: var(--color2, #fd9222)" stroke-linejoin="round" stroke-linecap="round" stroke-miterlimit="4" stroke-width="2.6667" d="M21.635 23.88l-14.185-8.864M11.361 8.599l14.185 8.864M10.63 25.864l11.736-19.25M27.176 14.789c-3.040-1.899-4.234-3.384-2.278-6.592l-9.626-6.015-11.736 19.25 14.186 8.864 9.454-15.507z"></path>
</symbol>
<symbol id="mastercard" viewBox="0 0 50 32">
<path fill="#ED0006" style="fill: var(--color1, #ED0006)" d="M25.143 28.078c-2.656 2.194-6.102 3.518-9.867 3.518-8.401 0-15.211-6.593-15.211-14.726s6.81-14.726 15.211-14.726c3.765 0 7.21 1.324 9.867 3.518 2.656-2.194 6.102-3.518 9.866-3.518 8.401 0 15.211 6.593 15.211 14.726s-6.81 14.726-15.211 14.726c-3.765 0-7.21-1.324-9.867-3.518z"></path>
<path fill="#F9A000" style="fill: var(--color2, #F9A000)" d="M25.143 28.078c3.271-2.701 5.344-6.72 5.344-11.208s-2.074-8.507-5.344-11.208c2.656-2.194 6.102-3.518 9.866-3.518 8.401 0 15.211 6.593 15.211 14.726s-6.81 14.726-15.211 14.726c-3.765 0-7.21-1.324-9.867-3.518z"></path>
<path fill="#FF5E00" style="fill: var(--color3, #FF5E00)" d="M25.143 28.078c3.271-2.701 5.344-6.72 5.344-11.208s-2.074-8.507-5.344-11.208c-3.271 2.701-5.344 6.72-5.344 11.208s2.074 8.507 5.344 11.208z"></path>
</symbol>
<symbol id="ukraine-flag" viewBox="0 0 43 32">
<path fill="#FFD700" style="fill: var(--color4, #FFD700)" d="M42.443 0.523h-42.119v31.344h42.119v-31.344z"></path>
<path fill="#0057B7" style="fill: var(--color5, #0057B7)" d="M0.324 0.523h42.119v15.672h-42.119v-15.672z"></path>
</symbol>

<symbol id="icon-telegram" width="27" height="27" viewBox="0 0 256 256" xmlns="http://www.w3.org/2000/svg">
    <path  d="M235.57 27.7a7 7 0 0 0-7.13-1.22L25.78 105.79a12.23 12.23 0 0 0 2.1 23.39L82 139.81V200a14 14 0 0 0 24.08 9.71l26.64-27.63l41.58 36.45a13.9 13.9 0 0 0 9.2 3.49a14.33 14.33 0 0 0 4.36-.69a13.86 13.86 0 0 0 9.34-10.17l40.62-176.59a7 7 0 0 0-2.25-6.87M30.05 117.37a.46.46 0 0 1 0-.32a.51.51 0 0 1 .15-.08l159.71-62.52l-103.3 74l-56.41-11.04Zm67.39 84A2 2 0 0 1 94 200v-51.89l29.69 26Zm88.07 7.08a1.93 1.93 0 0 1-1.34 1.44a2 2 0 0 1-2-.4l-84.53-74.15L223 45.5Z"/>
</symbol>


<symbol id="icon-insta" width="27" height="27" viewBox="0 0 256 256" xmlns="http://www.w3.org/2000/svg">
    <path   d="M128 82a46 46 0 1 0 46 46a46.06 46.06 0 0 0-46-46m0 80a34 34 0 1 1 34-34a34 34 0 0 1-34 34m48-136H80a54.06 54.06 0 0 0-54 54v96a54.06 54.06 0 0 0 54 54h96a54.06 54.06 0 0 0 54-54V80a54.06 54.06 0 0 0-54-54m42 150a42 42 0 0 1-42 42H80a42 42 0 0 1-42-42V80a42 42 0 0 1 42-42h96a42 42 0 0 1 42 42ZM190 76a10 10 0 1 1-10-10a10 10 0 0 1 10 10"/>
</symbol>

<symbol id="icon-mail" width="32" height="32" viewBox="0 0 24 24" xmlns="http://www.w3.org/2000/svg">
    <path  stroke-width="0.1" d="M3 19V5h18v14zm9-6.885l-8-5.23V18h16V6.885zM12 11l7.692-5H4.308zM4 6.885V6v12z"/>
</symbol>
    
    <symbol id="numerology" fill="#BB7ADA" height="35px" width="35px" version="1.1"  xmlns="http://www.w3.org/2000/svg" xmlns:xlink="http://www.w3.org/1999/xlink" 
	 viewBox="0 0 512 512" xml:space="preserve">
<g>
	<g>
		<path d="M433.021,275.064h-10.894V247.83h10.894c43.549,0,78.979-35.429,78.979-78.979s-35.429-78.979-78.979-78.979h-10.894
			V78.979C422.128,35.429,386.698,0,343.149,0C299.6,0,264.17,35.429,264.17,78.979v10.894h-27.234V78.979
			C236.936,35.429,201.507,0,157.957,0S78.979,35.429,78.979,78.979v10.894C35.429,89.872,0,125.302,0,168.851
			C0,212.4,35.429,247.83,78.979,247.83v27.234C35.429,275.064,0,310.493,0,354.043c0,43.549,35.429,78.979,78.979,78.979
			c0,43.549,35.429,78.979,78.979,78.979s78.979-35.429,78.979-78.979h27.234c0,43.549,35.429,78.979,78.979,78.979
			c43.549,0,78.979-35.429,78.979-78.979h10.894c43.549,0,78.979-35.429,78.979-78.979C512,310.493,476.571,275.064,433.021,275.064
			z M422.128,106.213h10.894c34.539,0,62.638,28.099,62.638,62.638s-28.099,62.638-62.638,62.638h-119.83v-16.34h119.83
			c25.529,0,46.298-20.769,46.298-46.298s-20.769-46.298-46.298-46.298h-10.894V106.213z M422.128,324.085h10.894
			c16.519,0,29.957,13.44,29.957,29.957c0,16.518-13.438,29.957-29.957,29.957h-10.894V324.085z M381.277,264.17
			c-4.512,0-8.17,3.657-8.17,8.17v2.723h-59.915V247.83h92.596V384h-16.34V283.245c0-0.022,0-10.904,0-10.904
			C389.447,267.827,385.789,264.17,381.277,264.17z M236.936,307.745v-16.34h136.17v16.34H236.936z M373.106,324.085V384h-59.915
			v-59.915H373.106z M196.085,264.17c-4.512,0-8.17,3.657-8.17,8.17v2.723H128V247.83h92.596v68.074c0,0.022,0,68.096,0,68.096
			h-16.34V272.34C204.255,267.827,200.597,264.17,196.085,264.17z M128,231.489v-16.34h136.17v16.34H128z M128,198.809v-59.915
			h59.915v59.915H128z M187.915,89.872H128V78.979c0-16.518,13.438-29.957,29.957-29.957s29.957,13.439,29.957,29.957V89.872z
			 M264.17,247.83v27.234h-27.234V247.83H264.17z M313.191,198.809v-59.915h59.915v59.915H313.191z M373.106,89.872h-59.915V78.979
			c0-16.518,13.438-29.957,29.957-29.957c16.519,0,29.957,13.439,29.957,29.957V89.872z M422.128,138.894h10.894
			c16.519,0,29.957,13.439,29.957,29.957s-13.438,29.957-29.957,29.957h-10.894V138.894z M280.511,78.979
			c0-34.539,28.099-62.638,62.638-62.638s62.638,28.099,62.638,62.638v119.83h-16.34V98.053c0-0.022,0-19.075,0-19.075
			c0-25.529-20.769-46.298-46.298-46.298s-46.298,20.769-46.298,46.298v10.894h-16.34V78.979z M236.936,106.213h136.17v16.34
			h-136.17V106.213z M236.936,138.894h59.915v136.17h-16.34V239.67c0-0.022,0-76.266,0-76.266c0-4.513-3.658-8.17-8.17-8.17
			c-4.512,0-8.17,3.657-8.17,8.17v35.404h-27.234V138.894z M95.319,78.979c0-34.539,28.099-62.638,62.638-62.638
			s62.638,28.099,62.638,62.638v51.734c0,0.022,0,68.096,0,68.096h-16.34V78.979c0-25.529-20.769-46.298-46.298-46.298
			S111.66,53.45,111.66,78.979v10.894h-16.34V78.979z M16.34,168.851c0-34.539,28.099-62.638,62.638-62.638h108.936v16.34H78.979
			c-25.529,0-46.298,20.769-46.298,46.298s20.769,46.298,46.298,46.298v16.34C44.439,231.489,16.34,203.39,16.34,168.851z
			 M87.149,155.234c-4.512,0-8.17,3.657-8.17,8.17v35.404c-16.519,0-29.957-13.439-29.957-29.957s13.438-29.957,29.957-29.957
			h32.681v68.074c0,0.022,0,68.096,0,68.096h-16.34v-111.66C95.319,158.891,91.661,155.234,87.149,155.234z M78.979,416.681
			c-34.539,0-62.638-28.099-62.638-62.638s28.099-62.638,62.638-62.638h108.936v16.34H78.979c-25.529,0-46.298,20.769-46.298,46.298
			S53.45,400.34,78.979,400.34V416.681z M187.915,324.085V384H128v-59.915H187.915z M157.957,495.66
			c-34.539,0-62.638-28.099-62.638-62.638v-84.426c0-4.513-3.658-8.17-8.17-8.17c-4.512,0-8.17,3.657-8.17,8.17V384
			c-16.519,0-29.957-13.439-29.957-29.957c0-16.518,13.438-29.957,29.957-29.957h32.681v68.074c0,0.022,0,40.862,0,40.862
			c0,25.529,20.769,46.298,46.298,46.298s46.298-20.769,46.298-46.298h16.34C220.596,467.561,192.497,495.66,157.957,495.66z
			 M128,433.021h59.915c0,16.518-13.438,29.957-29.957,29.957S128,449.539,128,433.021z M264.17,416.681H128v-16.34h136.17V416.681z
			 M343.149,495.66c-34.539,0-62.638-28.099-62.638-62.638v-8.159c0-0.022,0-76.266,0-76.266c0-4.513-3.658-8.17-8.17-8.17
			c-4.512,0-8.17,3.657-8.17,8.17V384h-27.234v-59.915h59.915v108.936c0,25.529,20.769,46.298,46.298,46.298
			s46.298-20.769,46.298-46.298h16.34C405.787,467.561,377.688,495.66,343.149,495.66z M313.191,433.021h59.915
			c0,16.518-13.438,29.957-29.957,29.957C326.63,462.979,313.191,449.539,313.191,433.021z M433.021,416.681h-119.83v-16.34h119.83
			c25.529,0,46.298-20.769,46.298-46.298s-20.769-46.298-46.298-46.298h-10.894v-16.34h10.894c34.539,0,62.638,28.099,62.638,62.638
			S467.561,416.681,433.021,416.681z"/>
	</g>
</g>
</symbol>
</defs>
</svg>
