<svg aria-hidden="true" style="position: absolute; width: 0; height: 0; overflow: hidden;" version="1.1" xmlns="http://www.w3.org/2000/svg" xmlns:xlink="http://www.w3.org/1999/xlink">
<defs>
	<!-- Logo icon -->
 <symbol id="numerology" fill="#BB7ADA" height="35px" width="35px" version="1.1"  xmlns="http://www.w3.org/2000/svg" xmlns:xlink="http://www.w3.org/1999/xlink" 
	 viewBox="0 0 512 512" xml:space="preserve">
<g>
	<g>
		<path d="M433.021,275.064h-10.894V247.83h10.894c43.549,0,78.979-35.429,78.979-78.979s-35.429-78.979-78.979-78.979h-10.894
			V78.979C422.128,35.429,386.698,0,343.149,0C299.6,0,264.17,35.429,264.17,78.979v10.894h-27.234V78.979
			C236.936,35.429,201.507,0,157.957,0S78.979,35.429,78.979,78.979v10.894C35.429,89.872,0,125.302,0,168.851
			C0,212.4,35.429,247.83,78.979,247.83v27.234C35.429,275.064,0,310.493,0,354.043c0,43.549,35.429,78.979,78.979,78.979
			c0,43.549,35.429,78.979,78.979,78.979s78.979-35.429,78.979-78.979h27.234c0,43.549,35.429,78.979,78.979,78.979
			c43.549,0,78.979-35.429,78.979-78.979h10.894c43.549,0,78.979-35.429,78.979-78.979C512,310.493,476.571,275.064,433.021,275.064
			z M422.128,106.213h10.894c34.539,0,62.638,28.099,62.638,62.638s-28.099,62.638-62.638,62.638h-119.83v-16.34h119.83
			c25.529,0,46.298-20.769,46.298-46.298s-20.769-46.298-46.298-46.298h-10.894V106.213z M422.128,324.085h10.894
			c16.519,0,29.957,13.44,29.957,29.957c0,16.518-13.438,29.957-29.957,29.957h-10.894V324.085z M381.277,264.17
			c-4.512,0-8.17,3.657-8.17,8.17v2.723h-59.915V247.83h92.596V384h-16.34V283.245c0-0.022,0-10.904,0-10.904
			C389.447,267.827,385.789,264.17,381.277,264.17z M236.936,307.745v-16.34h136.17v16.34H236.936z M373.106,324.085V384h-59.915
			v-59.915H373.106z M196.085,264.17c-4.512,0-8.17,3.657-8.17,8.17v2.723H128V247.83h92.596v68.074c0,0.022,0,68.096,0,68.096
			h-16.34V272.34C204.255,267.827,200.597,264.17,196.085,264.17z M128,231.489v-16.34h136.17v16.34H128z M128,198.809v-59.915
			h59.915v59.915H128z M187.915,89.872H128V78.979c0-16.518,13.438-29.957,29.957-29.957s29.957,13.439,29.957,29.957V89.872z
			 M264.17,247.83v27.234h-27.234V247.83H264.17z M313.191,198.809v-59.915h59.915v59.915H313.191z M373.106,89.872h-59.915V78.979
			c0-16.518,13.438-29.957,29.957-29.957c16.519,0,29.957,13.439,29.957,29.957V89.872z M422.128,138.894h10.894
			c16.519,0,29.957,13.439,29.957,29.957s-13.438,29.957-29.957,29.957h-10.894V138.894z M280.511,78.979
			c0-34.539,28.099-62.638,62.638-62.638s62.638,28.099,62.638,62.638v119.83h-16.34V98.053c0-0.022,0-19.075,0-19.075
			c0-25.529-20.769-46.298-46.298-46.298s-46.298,20.769-46.298,46.298v10.894h-16.34V78.979z M236.936,106.213h136.17v16.34
			h-136.17V106.213z M236.936,138.894h59.915v136.17h-16.34V239.67c0-0.022,0-76.266,0-76.266c0-4.513-3.658-8.17-8.17-8.17
			c-4.512,0-8.17,3.657-8.17,8.17v35.404h-27.234V138.894z M95.319,78.979c0-34.539,28.099-62.638,62.638-62.638
			s62.638,28.099,62.638,62.638v51.734c0,0.022,0,68.096,0,68.096h-16.34V78.979c0-25.529-20.769-46.298-46.298-46.298
			S111.66,53.45,111.66,78.979v10.894h-16.34V78.979z M16.34,168.851c0-34.539,28.099-62.638,62.638-62.638h108.936v16.34H78.979
			c-25.529,0-46.298,20.769-46.298,46.298s20.769,46.298,46.298,46.298v16.34C44.439,231.489,16.34,203.39,16.34,168.851z
			 M87.149,155.234c-4.512,0-8.17,3.657-8.17,8.17v35.404c-16.519,0-29.957-13.439-29.957-29.957s13.438-29.957,29.957-29.957
			h32.681v68.074c0,0.022,0,68.096,0,68.096h-16.34v-111.66C95.319,158.891,91.661,155.234,87.149,155.234z M78.979,416.681
			c-34.539,0-62.638-28.099-62.638-62.638s28.099-62.638,62.638-62.638h108.936v16.34H78.979c-25.529,0-46.298,20.769-46.298,46.298
			S53.45,400.34,78.979,400.34V416.681z M187.915,324.085V384H128v-59.915H187.915z M157.957,495.66
			c-34.539,0-62.638-28.099-62.638-62.638v-84.426c0-4.513-3.658-8.17-8.17-8.17c-4.512,0-8.17,3.657-8.17,8.17V384
			c-16.519,0-29.957-13.439-29.957-29.957c0-16.518,13.438-29.957,29.957-29.957h32.681v68.074c0,0.022,0,40.862,0,40.862
			c0,25.529,20.769,46.298,46.298,46.298s46.298-20.769,46.298-46.298h16.34C220.596,467.561,192.497,495.66,157.957,495.66z
			 M128,433.021h59.915c0,16.518-13.438,29.957-29.957,29.957S128,449.539,128,433.021z M264.17,416.681H128v-16.34h136.17V416.681z
			 M343.149,495.66c-34.539,0-62.638-28.099-62.638-62.638v-8.159c0-0.022,0-76.266,0-76.266c0-4.513-3.658-8.17-8.17-8.17
			c-4.512,0-8.17,3.657-8.17,8.17V384h-27.234v-59.915h59.915v108.936c0,25.529,20.769,46.298,46.298,46.298
			s46.298-20.769,46.298-46.298h16.34C405.787,467.561,377.688,495.66,343.149,495.66z M313.191,433.021h59.915
			c0,16.518-13.438,29.957-29.957,29.957C326.63,462.979,313.191,449.539,313.191,433.021z M433.021,416.681h-119.83v-16.34h119.83
			c25.529,0,46.298-20.769,46.298-46.298s-20.769-46.298-46.298-46.298h-10.894v-16.34h10.894c34.539,0,62.638,28.099,62.638,62.638
			S467.561,416.681,433.021,416.681z"/>
	</g>
</g>
</symbol>

<!-- Social media icons -->
<symbol id="icon-telegram" width="27" height="27" viewBox="0 0 256 256" xmlns="http://www.w3.org/2000/svg">
    <path  d="M235.57 27.7a7 7 0 0 0-7.13-1.22L25.78 105.79a12.23 12.23 0 0 0 2.1 23.39L82 139.81V200a14 14 0 0 0 24.08 9.71l26.64-27.63l41.58 36.45a13.9 13.9 0 0 0 9.2 3.49a14.33 14.33 0 0 0 4.36-.69a13.86 13.86 0 0 0 9.34-10.17l40.62-176.59a7 7 0 0 0-2.25-6.87M30.05 117.37a.46.46 0 0 1 0-.32a.51.51 0 0 1 .15-.08l159.71-62.52l-103.3 74l-56.41-11.04Zm67.39 84A2 2 0 0 1 94 200v-51.89l29.69 26Zm88.07 7.08a1.93 1.93 0 0 1-1.34 1.44a2 2 0 0 1-2-.4l-84.53-74.15L223 45.5Z"/>
</symbol>
<symbol id="icon-insta" width="27" height="27" viewBox="0 0 256 256" xmlns="http://www.w3.org/2000/svg">
    <path   d="M128 82a46 46 0 1 0 46 46a46.06 46.06 0 0 0-46-46m0 80a34 34 0 1 1 34-34a34 34 0 0 1-34 34m48-136H80a54.06 54.06 0 0 0-54 54v96a54.06 54.06 0 0 0 54 54h96a54.06 54.06 0 0 0 54-54V80a54.06 54.06 0 0 0-54-54m42 150a42 42 0 0 1-42 42H80a42 42 0 0 1-42-42V80a42 42 0 0 1 42-42h96a42 42 0 0 1 42 42ZM190 76a10 10 0 1 1-10-10a10 10 0 0 1 10 10"/>
</symbol>
<symbol id="icon-mail" width="32" height="32" viewBox="0 0 24 24" xmlns="http://www.w3.org/2000/svg">
    <path  stroke-width="0.1" d="M3 19V5h18v14zm9-6.885l-8-5.23V18h16V6.885zM12 11l7.692-5H4.308zM4 6.885V6v12z"/>
</symbol>
    
<!-- Burger icon -->
<symbol id="icon-burger" viewBox="0 0 32 32">
    <path stroke-linejoin="round" stroke-linecap="round" stroke-miterlimit="4" stroke-width="2.8571" d="M2.286 16h27.429M2.286 6.857h27.429M2.286 25.143h27.429"></path>
</symbol>

<!-- Icon for advantages section -->
<symbol id="diamond" version="1.1"  xmlns="http://www.w3.org/2000/svg" xmlns:xlink="http://www.w3.org/1999/xlink" x="0px" y="0px"
	 viewBox="0 0 33 33" style="enable-background:new 0 0 33 33;" xml:space="preserve">
<g>
	<path d="M16.5,30.5c-0.147,0-0.288-0.065-0.382-0.178l-16-19C-0.032,11.144-0.04,10.886,0.1,10.7l6-8
		c0.094-0.126,0.243-0.2,0.4-0.2h20c0.157,0,0.306,0.074,0.4,0.2l6,8c0.14,0.186,0.132,0.444-0.018,0.622l-16,19
		C16.788,30.435,16.647,30.5,16.5,30.5z M1.139,10.982L16.5,29.224l15.361-18.242L26.25,3.5H6.75L1.139,10.982z"/>
	<path d="M32.5,11.5h-32C0.224,11.5,0,11.277,0,11s0.224-0.5,0.5-0.5h32c0.276,0,0.5,0.224,0.5,0.5S32.776,11.5,32.5,11.5z"/>
	<path d="M16.5,30.5c-0.05,0-0.101-0.007-0.15-0.023c-0.264-0.083-0.41-0.364-0.326-0.627l6-19c0.083-0.263,0.366-0.411,0.627-0.326
		c0.264,0.083,0.41,0.364,0.326,0.627l-6,19C16.91,30.364,16.712,30.5,16.5,30.5z"/>
	<path d="M16.5,30.5c-0.212,0-0.41-0.136-0.477-0.35l-6-19c-0.083-0.263,0.063-0.544,0.326-0.627
		c0.264-0.085,0.544,0.063,0.627,0.326l6,19c0.083,0.263-0.063,0.544-0.326,0.627C16.601,30.493,16.55,30.5,16.5,30.5z"/>
	<path d="M10.5,11.5c-0.184,0-0.36-0.101-0.448-0.276l-4-8C5.929,2.977,6.029,2.677,6.276,2.553C6.524,2.43,6.823,2.53,6.947,2.777
		l4,8c0.124,0.247,0.023,0.547-0.224,0.671C10.652,11.483,10.576,11.5,10.5,11.5z"/>
	<path d="M10.5,11.5c-0.104,0-0.209-0.033-0.299-0.1c-0.221-0.166-0.266-0.479-0.1-0.7l6-8c0.166-0.221,0.479-0.265,0.7-0.1
		c0.221,0.166,0.266,0.479,0.1,0.7l-6,8C10.802,11.431,10.652,11.5,10.5,11.5z"/>
	<path d="M22.5,11.5c-0.152,0-0.302-0.069-0.4-0.2l-6-8c-0.166-0.221-0.121-0.534,0.1-0.7c0.22-0.167,0.534-0.122,0.7,0.1l6,8
		c0.166,0.221,0.121,0.534-0.1,0.7C22.71,11.468,22.605,11.5,22.5,11.5z"/>
	<path d="M22.5,11.5c-0.075,0-0.151-0.017-0.223-0.053c-0.247-0.124-0.347-0.424-0.224-0.671l4-8
		c0.124-0.247,0.423-0.347,0.671-0.224c0.247,0.124,0.347,0.424,0.224,0.671l-4,8C22.859,11.399,22.683,11.5,22.5,11.5z"/>
</g>
</symbol>

<!-- Close icon for modal window -->
<symbol id="icon-close" viewBox="0 0 32 32">
    <path stroke-linejoin="round" stroke-linecap="round" stroke-miterlimit="4" stroke-width="2.9091" d="M24 8l-16 16"></path>
    <path stroke-linejoin="round" stroke-linecap="round" stroke-miterlimit="4" stroke-width="2.9091" d="M8 8l16 16"></path>
</symbol>	

<symbol id="scroll-icon" viewBox="0 0 32 32">
<path d="M16.947 17.867c-0.124 0.125-0.271 0.224-0.434 0.292s-0.337 0.103-0.513 0.103c-0.176 0-0.35-0.035-0.513-0.103s-0.31-0.167-0.434-0.292l-6.107-6.12c-0.124-0.125-0.271-0.224-0.434-0.292s-0.337-0.103-0.513-0.103c-0.176 0-0.35 0.035-0.513 0.103s-0.31 0.167-0.434 0.292c-0.248 0.25-0.388 0.588-0.388 0.94s0.139 0.69 0.388 0.94l6.12 6.12c0.75 0.749 1.767 1.17 2.827 1.17s2.077-0.421 2.827-1.17l6.12-6.12c0.246-0.248 0.385-0.584 0.387-0.933 0.001-0.175-0.033-0.349-0.099-0.512s-0.164-0.31-0.288-0.435c-0.124-0.125-0.271-0.224-0.434-0.292s-0.337-0.103-0.513-0.103-0.35 0.035-0.513 0.103c-0.162 0.068-0.31 0.167-0.434 0.292l-6.107 6.12z"></path>
</symbol>
</defs>
</svg>
